<?xml version="1.0" encoding="UTF-8" standalone="no"?>
<!-- Created with Inkscape (http://www.inkscape.org/) -->

<svg
   xmlns:dc="http://purl.org/dc/elements/1.1/"
   xmlns:cc="http://creativecommons.org/ns#"
   xmlns:rdf="http://www.w3.org/1999/02/22-rdf-syntax-ns#"
   xmlns:svg="http://www.w3.org/2000/svg"
   xmlns="http://www.w3.org/2000/svg"
   xmlns:sodipodi="http://sodipodi.sourceforge.net/DTD/sodipodi-0.dtd"
   xmlns:inkscape="http://www.inkscape.org/namespaces/inkscape"
   id="svg4134"
   version="1.1"
   inkscape:version="0.91 r13725"
   width="480"
   height="480"
   viewBox="0 0 480 480"
   sodipodi:docname="circle2.svg">
  <metadata
     id="metadata4140">
    <rdf:RDF>
      <cc:Work
         rdf:about="">
        <dc:format>image/svg+xml</dc:format>
        <dc:type
           rdf:resource="http://purl.org/dc/dcmitype/StillImage" />
      </cc:Work>
    </rdf:RDF>
  </metadata>
  <defs
     id="defs4138" />
  <sodipodi:namedview
     pagecolor="#ffffff"
     bordercolor="#666666"
     borderopacity="1"
     objecttolerance="10"
     gridtolerance="10"
     guidetolerance="10"
     inkscape:pageopacity="0"
     inkscape:pageshadow="2"
     inkscape:window-width="1858"
     inkscape:window-height="1057"
     id="namedview4136"
     showgrid="false"
     inkscape:zoom="2"
     inkscape:cx="246.72181"
     inkscape:cy="360.77814"
     inkscape:window-x="-8"
     inkscape:window-y="224"
     inkscape:window-maximized="1"
     inkscape:current-layer="g4684" />
  <g
     id="g4684">
    <path
       style="fill:#fdacc7"
       d="M 284.4874,429.07453 C -79.195068,428.72093 -16.867723,12.652628 319.22169,35.536738 421.08881,50.317139 372.9687,69.47798 320.93012,123.05942 296.00332,104.68079 260.67741,94.128085 230.26056,95.974239 189.85638,99.759237 154.98729,117.37518 130.34868,145.43152 89.961237,199.17143 85.772177,269.2173 121.782,321.34567 c 38.94644,61.73518 117.21065,66.69657 151.13041,60.45965 41.48504,25.25074 56.70216,4.26596 11.57499,47.26921 z"
       id="path4698"
       inkscape:connector-curvature="0"
       sodipodi:nodetypes="cccccccc" />
    <path
       style="fill:#97d6e7"
       d="m 270.38779,379.30169 3.53543,3.88909 c 56.76202,-11.91627 95.41396,-58.11714 107.68601,-115.43836 8.27221,-48.43018 -8.78405,-97.0832 -39.04949,-127.96691 -15.8953,-15.87209 -34.2996,-27.04496 -53.73295,-33.7732 12.89126,-19.587375 12.21192,-8.637297 20.12797,-32.741758 C 417.24204,118.30941 431.36196,191.74756 414.03249,270.9875 391.9941,342.88439 349.84685,400.70801 283.97011,408.73312"
       id="path4696"
       inkscape:connector-curvature="0"
       sodipodi:nodetypes="cccccccc" />
    <path
       style="fill:#a6a6a6"
       d="M 437.20275,349.10526 C 282.31628,496.34729 110.56189,469.22436 27.53403,303.7453 l 39.74218,-14.98913 c 27.83332,44.54912 -2.51056,24.36118 37.99104,70.72492 43.50949,44.528 101.99831,65.6883 159.34584,56.31853 51.61711,-12.66909 106.50726,-50.57188 128.93132,-92.33271"
       id="path4694"
       inkscape:connector-curvature="0"
       sodipodi:nodetypes="cccccc" />
    <path
       style="fill:#b1e11b"
       d="m 62.820078,254.74228 c -3.149146,22.69987 -1.213108,11.93937 7.250967,43.10046 1.012,3.72575 -21.287279,21.54207 -23.498657,16.50535 C 25.845671,305.11176 23.98936,225.91887 34.400022,183.12161 47.489146,131.10815 72.162339,99.390788 111.25645,70.709532 401.48145,-13.765424 36.740877,75.917246 63.528717,227.38748"
       id="path4692"
       inkscape:connector-curvature="0"
       sodipodi:nodetypes="cscccc" />
    <path
       style="fill:#f37925"
       d="M 132.29408,454.25731 C 105.81041,440.89473 89.906904,429.14454 68.127264,406.8481 48.413234,386.66628 38.354704,372.52874 25.536724,346.98592 17.463614,330.89837 13.040194,319.63589 8.9841644,304.84145 -2.0904756,264.44641 -2.5390056,220.72777 7.7075044,180.4041 15.137584,151.16407 29.850174,120.47314 48.259654,95.811009 56.895314,84.242319 84.308954,56.828681 95.877634,48.193027 139.836,15.379526 194.35411,-1.7274134 248.14629,0.41349003 c 37.35525,1.48672167 67.1019,9.07170407 99.76289,25.43815297 24.36147,12.207556 39.04558,22.711678 59.00554,42.208985 22.88443,22.354001 32.96317,39.141172 46.95183,67.242822 12.58007,25.27197 18.95014,47.97738 22.59465,75.80747 1.52332,11.63227 0.53433,50.59502 -0.9821,62 -13.89431,66.52457 -35.01897,110.36802 -85.4585,151.5226 -33.81588,27.24604 -75.71368,46.59113 -119.08235,52.20006 -48.433,5.27135 -101.89795,-4.35973 -138.64417,-22.57627 z M 428.61934,200.49756 C 333.34759,9.4527558 223.67863,47.492482 116.75135,70.184579 96.525138,83.159516 75.89941,107.21322 64.346667,124.72052 c -12.82551,19.56116 -22.293887,40.63064 -27.842857,62.2913 -9.69236,37.83452 -7.058466,72.30205 3.997064,110.71264 3.451268,11.69633 7.804006,23.58197 12.9703,33.83745 22.54677,43.97456 60.594046,78.42965 106.742356,98.14079 36.00891,13.74783 71.61374,17.71677 110.43276,12.10882 65.67834,-6.39216 119.22572,-51.52606 148.25092,-105.46863 9.6069,-11.26662 31.48639,-54.07437 22.87846,-70.32134"
       id="path4690"
       inkscape:connector-curvature="0"
       sodipodi:nodetypes="cssssssssssscccccccscccccc" />
    <path
       style="fill:#727172"
       d="M 216.43359,1.2363281 C 173.27239,5.4578922 131.06691,21.681192 95.699219,48.082031 84.130531,56.717685 56.717685,84.130531 48.082031,95.699219 29.672546,120.36134 14.959382,151.05294 7.5292969,180.29297 4.6479408,191.63213 2.6133322,203.24011 1.421875,214.9668 c -0.42665022,3.39053 -0.51141542,5.06234 -0.859375,10.94336 -0.57892584,10.21732 -0.52215108,20.48945 0.16601562,30.71875 0.1619989,3.79353 0.37791878,6.70136 0.65429688,7.86718 1.3515496,13.60876 3.822255,27.09755 7.4238281,40.23438 4.0560244,14.79444 8.4796304,26.05698 16.5527344,42.14453 12.817983,25.54282 22.875819,39.67951 42.589844,59.86133 21.779645,22.29644 37.684301,34.04757 64.167971,47.41015 28.07577,14.16589 52.05562,21.26078 83.51172,24.69336 1.1222,0.21465 2.62013,0.41155 4.23828,0.53125 9.6052,0.25454 18.90459,0.25735 27.12695,0.0528 9.70405,-0.21375 19.05708,-0.65517 23.94336,-1.28711 43.36867,-5.60893 85.09037,-23.36724 118.90625,-50.61328 11.67702,-9.40838 28.40797,-26.13918 37.72852,-37.72656 27.501,-34.18947 44.76784,-74.96748 50.72851,-119.79688 0.16539,-1.24388 0.31038,-2.83716 0.43945,-4.62305 1.13182,-5.70225 1.12125,-45.81 -0.0312,-50.88281 C 478.5824,212.77315 478.44315,211.22137 478.2832,210 474.63869,182.16991 467.68359,159.40478 455.10352,134.13281 441.11486,106.03116 429.62076,90.30322 406.73633,67.949219 386.77637,48.451912 372.09389,37.94779 347.73242,25.740234 320.23775,11.962633 294.79016,4.4262881 265.14844,1.4941406 c -0.006,-0.00753 -0.0302,-0.01606 -0.0352,-0.023437 C 258.57774,0.47199212 254.0231,0.54810703 247.96875,0.30273438 237.19844,0.19940125 226.67872,-0.20586285 216.43359,1.2363281 Z m 51.22266,5.2597657 c 26.0089,3.1319226 51.44195,10.8446072 76.31055,23.1445312 19.16934,9.481093 36.23388,20.74169 51.32617,33.886719 0.004,0.0036 0.008,0.0061 0.0117,0.0098 7.07628,6.500317 15.2061,14.640472 21.36719,21.378907 13.18245,15.155899 24.43338,32.275909 33.86132,51.490239 11.80374,24.05626 18.50243,45.49826 22.60938,72.37108 2.4021,15.71763 2.1715,49.5358 -0.44727,65.62892 -4.14516,25.47311 -10.5739,45.54368 -22.16211,69.1875 -23.68408,48.32335 -58.7245,83.35616 -106.93945,106.91602 -28.68224,14.01536 -53.76617,21.13513 -84.0918,23.86914 -33.05188,2.9798 -67.56468,-1.82423 -101.40625,-14.11524 -12.67741,-4.60435 -36.37965,-16.73703 -48.4082,-24.77929 -11.0804,-7.40835 -19.960372,-14.3404 -28.783203,-22.54883 -3.371843,-3.1651 -6.957402,-6.69501 -9.880859,-9.71876 C 52.912908,384.43227 41.326561,367.72994 29.011719,342.65625 15.063114,314.25613 7.2305325,284.30333 5.3554688,254.20312 c -0.035296,-0.58851 -0.076521,-1.17691 -0.1074219,-1.76562 -0.4463315,-8.50336 -0.430979,-17.02439 0.037109,-25.52148 0.018077,-0.31636 0.035299,-0.63293 0.054688,-0.94922 0.036641,-0.62001 0.079597,-1.23967 0.1210937,-1.85938 C 8.5576731,179.52075 24.689141,135.6421 53.400391,97.064453 c 2.144629,-2.731321 4.36592,-5.445886 6.667968,-8.132812 8.083946,-9.192182 19.6711,-20.779336 28.863282,-28.863282 2.670143,-2.28767 5.367973,-4.49467 8.082031,-6.626953 C 127.24053,30.936357 162.20667,15.403743 197.20312,8.953125 210.47871,6.9401731 222.2305,5.3357395 234.24366,5.0111406 c 11.2451,-0.1998644 23.55084,0.38053 33.41259,1.4849532 z M 238.13867,28.171875 c -22.78065,0.07531 -45.69414,3.811765 -67.91211,11.296875 -28.50952,9.604698 -52.88202,24.319999 -75.416013,45.509766 -2.117473,1.971803 -4.345078,4.172672 -6.224609,6.072265 -31.787099,32.212479 -51.351774,71.171139 -58.28125,116.136719 -2.30253,14.9412 -2.305762,46.90183 -0.0059,61.875 6.442632,41.94379 23.050745,77.20678 51.169922,108.53125 1.798645,2.00038 3.666931,3.98597 5.376953,5.80078 19.872967,20.73904 41.855817,35.96841 66.709367,46.98129 20.3458,9.01544 42.6154,15.53505 67.22618,17.17106 23.17549,1.5406 40.71727,-0.31283 50.15625,-1.75586 43.19233,-6.60323 81.45481,-25.58556 113.24219,-56.17969 32.25135,-31.04069 52.0575,-66.63959 60.62695,-108.97266 3.06717,-15.15182 4.41362,-30.66403 4.13867,-46.10156 -9.7e-4,-0.0592 -9.3e-4,-0.1185 -0.002,-0.17773 -0.034,-1.82656 -0.0883,-3.65095 -0.16797,-5.47461 -0.005,-0.10803 -0.009,-0.21622 -0.0137,-0.32422 -1.5419,-34.12187 -11.05037,-67.59748 -27.77734,-95.67774 -7.03373,-11.80781 -15.78019,-23.45981 -25.49805,-34.271482 -0.11616,-0.129689 -0.23309,-0.259215 -0.34961,-0.388672 -1.23621,-1.369402 -2.48366,-2.726327 -3.75,-4.066406 C 377.68686,79.658712 362.32023,66.94815 347.08984,57.908203 313.70286,38.09146 276.10642,28.046367 238.13867,28.171875 Z m 0.0137,36.023437 c 12.05992,0.0029 24.12468,0.729478 32.01368,2.177735 11.86149,2.177521 30.92646,7.943876 32.4414,9.8125 1.47211,1.81579 -9.43564,24.641453 -11.68359,24.449223 -0.93734,-0.0802 -7.4495,-1.636642 -14.47071,-3.460942 -22.51089,-5.848951 -41.44517,-6.602879 -61.85351,-2.460937 -67.76814,13.753769 -114.0926,64.344929 -121.861329,133.082029 -2.515614,22.25797 2.461901,50.5995 12.902339,73.45117 20.9586,45.87341 60.22309,76.00466 111.70704,85.72266 10.4731,1.97689 36.05413,1.9884 46.26953,0.0215 3.96567,-0.7635 7.59671,-1.13713 8.07031,-0.83007 1.50043,0.97278 8.02842,20.7519 7.12695,21.59375 -0.46557,0.43477 -5.06445,1.5221 -10.2207,2.41601 -9.01289,1.56251 -27.94652,2.94337 -34.69955,2.71466 -6.07873,-0.20587 -11.10001,-0.715 -16.86295,-1.35724 C 142.95578,403.27219 79.936909,344.17404 66.414062,270.4043 63.476023,254.37673 63.44721,222.01735 66.357422,206.17383 79.228946,136.09986 136.09986,79.228942 206.17383,66.357422 c 7.86364,-1.444435 19.9186,-2.165036 31.97851,-2.16211 z M 116.4043,74.310547 c 0.0688,-0.0098 0.12577,-0.0084 0.16992,0.0059 1.1964,0.387327 14.67578,16.615029 14.67578,17.667969 0,0.363125 -3.48047,3.531006 -7.73438,7.041016 C 98.140758,119.96281 77.519649,149.91368 67.119141,180.9375 55.891789,214.42772 55.168058,255.70123 65.21875,289.35352 c 1.254255,4.19957 2.265424,8.20738 2.246094,8.90625 -0.01933,0.69888 -4.450843,4.10139 -9.847656,7.56054 -9.812149,6.2892 -9.811365,6.2893 -11.167969,4.21875 -0.746151,-1.13884 -2.827427,-7.18041 -4.625,-13.42578 C 30.768686,258.20269 30.16897,224.73491 39.861328,186.90039 45.410302,165.23973 54.172537,145.5846 66.998047,126.02344 74.680825,114.30585 81.370318,106.01268 91.769531,95.314453 100.56095,86.270259 114.27153,74.614412 116.4043,74.310547 Z m 193.60742,4.453125 c 1.82808,0.03122 19.72005,10.333131 27.56055,15.86914 36.83652,26.009448 62.74778,64.823708 71.07031,106.460938 6.48452,32.44183 4.51697,65.60441 -5.64258,95.08203 -16.15312,46.86776 -56.47217,88.11457 -103,105.3711 -11.22816,4.16435 -13.71123,4.78199 -14.44922,3.58789 -0.99761,-1.61417 -7.11328,-18.90526 -7.11328,-20.11133 0,-0.62386 3.0586,-2.11363 6.79688,-3.31055 3.73828,-1.19692 11.26997,-4.21505 16.73828,-6.70703 41.53181,-18.92661 71.06958,-54.7397 82.74023,-100.31836 16.60431,-64.84665 -17.09502,-136.61571 -78.19336,-166.52734 -4.61732,-2.26048 -8.39453,-4.53366 -8.39453,-5.05274 0,-1.65594 11.08489,-24.357442 11.88672,-24.343748 z m -68.93164,18.972656 c 17.20553,0.112989 34.49157,3.510082 51.88867,10.191402 37.75439,14.49948 69.19392,47.38684 82.3418,86.13477 5.96213,17.57092 7.54101,27.28679 7.54101,46.40625 0,19.12621 -1.58219,28.86155 -7.53906,46.40625 -16.28312,47.95847 -56.63732,83.09494 -107.65625,93.73438 -10.69733,2.23081 -33.82308,3.23041 -43.59375,1.88476 -3.35156,-0.46159 -10.0897,-1.75514 -14.97266,-2.875 -55.40277,-12.70613 -96.86727,-55.52604 -108.875,-112.43164 -2.723014,-12.90461 -3.002137,-37.30406 -0.576168,-50.37891 1.966208,-10.597 8.717068,-31.40239 12.859378,-39.63476 4.31031,-8.56628 13.80803,-22.67828 20.6914,-30.74219 15.32156,-17.94931 38.70898,-33.41105 62.51367,-41.32617 15.07597,-5.01279 30.19561,-7.468838 45.37696,-7.369142 z M 418.33789,263.17383 c 4.90429,-0.0799 22.37485,1.85141 23.25977,2.73633 1.1715,1.1715 -2.92446,20.80358 -7.05664,33.82226 -3.48933,10.99334 -10.7894,29.16232 -13.1875,32.82227 -0.76866,1.17313 -1.73182,2.13281 -2.14063,2.13281 -0.40879,0 -5.25067,-3.17705 -10.75977,-7.06055 l -10.01562,-7.06054 1.33594,-3.01758 c 7.31407,-16.52276 9.17146,-21.18961 11.13672,-27.98047 1.24928,-4.31685 3.02244,-11.85742 3.9414,-16.75586 0.91897,-4.89844 1.92659,-9.15976 2.23828,-9.4707 0.10265,-0.1024 0.54744,-0.15656 1.24805,-0.16797 z M 69.201172,305.625 c 0.427206,0 3.812228,6.01173 7.523437,13.35938 17.570845,34.7877 45.685451,63.01604 79.943361,80.26757 50.62344,25.49285 108.8519,26.06575 159.91211,1.57227 29.87652,-14.33171 56.18146,-37.91123 74.86133,-67.10547 2.4634,-3.84999 4.59252,-7.14607 4.73242,-7.32422 0.18339,-0.23355 15.21742,9.97095 19.91211,13.51563 0.55094,0.41598 -7.56873,12.90167 -14.28321,21.96484 -8.00626,10.80682 -26.40185,29.47335 -36.6875,37.22852 -29.7926,22.46302 -60.24364,35.68645 -94.64648,41.09765 -11.20493,1.76242 -34.58367,3.94328 -53.90625,1.3125 -19.29858,-2.62752 -40.04026,-7.37982 -56.52734,-14.42187 C 113.88685,407.38066 78.339738,374.42573 55.792969,330.45117 52.950222,324.90676 50.634274,319.6897 50.646484,318.85742 50.666579,317.48698 67.299675,305.625 69.201172,305.625 Z"
       id="path4688"
       inkscape:connector-curvature="0"
       sodipodi:nodetypes="csssccccsssscccssssccsssscccccscccssssssssccscsccccccccccssccssccsssssccccsccssssssssssssccsssssssssssssssssssssssssssssssssssssssssssssssssssssscccsscsssssscssssssssss" />
  </g>
</svg>
